<svg width="60" height="60" viewBox="0 0 60 60" fill="none" xmlns="http://www.w3.org/2000/svg">
<g id="Group">
<path id="Vector" d="M30 0.046875C13.4838 0.046875 0.046875 13.4839 0.046875 30.0002C0.046875 46.5164 13.4838 59.9534 29.9999 59.9534C46.5162 59.9534 59.9533 46.5164 59.9533 30.0002C59.9533 13.4839 46.5162 0.046875 30 0.046875ZM30 57.852C14.6426 57.852 2.14844 45.3578 2.14844 30.0002C2.14844 14.6427 14.6426 2.14838 30 2.14838C45.3574 2.14838 57.8518 14.6427 57.8518 30.0002C57.8518 45.3578 45.3574 57.852 30 57.852Z" fill="#009BA4"/>
<path id="Vector_2" d="M39.2663 31.4232H34.2268V20.121C34.2268 19.5407 33.7564 19.0703 33.1761 19.0703H26.5983C26.0179 19.0703 25.5476 19.5407 25.5476 20.121V31.4232H20.5078C20.1112 31.4232 19.7484 31.6465 19.5697 32.0005C19.391 32.3547 19.427 32.7792 19.6624 33.0982L29.0418 45.8035C29.24 46.072 29.5537 46.2303 29.8872 46.2303C30.2207 46.2303 30.5344 46.072 30.7326 45.8035L40.1117 33.0982C40.3471 32.7792 40.3831 32.3547 40.2044 32.0005C40.0257 31.6465 39.6629 31.4232 39.2663 31.4232ZM29.8872 43.4102L22.5895 33.5248H26.5983C27.1786 33.5248 27.6491 33.0546 27.6491 32.474V21.1718H32.1253V32.474C32.1253 33.0545 32.5957 33.5247 33.1761 33.5247H37.1846L29.8872 43.4102Z" fill="#009BA4"/>
<path id="Vector_3" d="M26.4844 17.6581H33.2894C33.8697 17.6581 34.3401 17.1877 34.3401 16.6074C34.3401 16.027 33.8697 15.5566 33.2894 15.5566H26.4844C25.904 15.5566 25.4336 16.027 25.4336 16.6074C25.4336 17.1877 25.904 17.6581 26.4844 17.6581Z" fill="#009BA4"/>
</g>
</svg>
