<svg width="149" height="98" viewBox="0 0 149 98" fill="none" xmlns="http://www.w3.org/2000/svg">
<g clip-path="url(#clip0_1037_20247)">
<path d="M10.4092 50.3846V30.7406C10.4119 30.5839 10.4753 30.4343 10.5859 30.3234C10.6966 30.2125 10.8458 30.149 11.0023 30.1462H24.5432C27.2157 30.1462 29.2784 30.743 30.7313 31.9366C32.1843 33.1302 32.9131 34.7869 32.9179 36.9067C32.9179 39.0551 32.1914 40.7142 30.7385 41.8839C29.2855 43.0536 27.2228 43.6504 24.5504 43.6743H18.323C18.1681 43.677 18.0202 43.7397 17.9104 43.8491C17.8005 43.9586 17.7371 44.1063 17.7334 44.2615V50.4133C17.7297 50.5678 17.6661 50.7148 17.556 50.8231C17.446 50.9314 17.2982 50.9925 17.1439 50.9933H10.9987C10.8416 50.9861 10.6932 50.9191 10.5837 50.806C10.4741 50.6929 10.4117 50.5422 10.4092 50.3846ZM21.7457 34.6293H18.3265C18.1707 34.6321 18.022 34.6951 17.9114 34.8052C17.8009 34.9153 17.7371 35.064 17.7334 35.2202V38.5288C17.7353 38.6864 17.7989 38.8371 17.9105 38.9483C18.0221 39.0594 18.1728 39.1222 18.3301 39.1232H21.7457C22.9355 39.1232 23.7608 38.9513 24.2145 38.6219C24.6683 38.2924 24.9005 37.7088 24.9005 36.8816C24.9005 36.0545 24.6754 35.4493 24.2145 35.1271C23.7536 34.8048 22.9355 34.6293 21.7457 34.6293V34.6293Z" fill="#009BA4"/>
<path d="M35.1543 50.3919V30.7336C35.1548 30.6554 35.1707 30.5781 35.2012 30.5061C35.2317 30.4341 35.2762 30.3689 35.332 30.3143C35.3878 30.2597 35.4539 30.2167 35.5265 30.1879C35.599 30.159 35.6765 30.1449 35.7545 30.1463H54.5833C54.7376 30.1538 54.8839 30.2177 54.9945 30.3259C55.1051 30.4341 55.1723 30.5791 55.1835 30.7336V34.6724C55.1789 34.8295 55.1138 34.9787 55.002 35.0888C54.8901 35.199 54.7401 35.2614 54.5833 35.2632H43.0895C43.01 35.2603 42.9307 35.2736 42.8565 35.3022C42.7822 35.3308 42.7145 35.3742 42.6574 35.4297C42.6004 35.4853 42.5551 35.5518 42.5243 35.6253C42.4936 35.6989 42.478 35.7779 42.4786 35.8576V37.1431C42.4728 37.2233 42.4842 37.3038 42.5121 37.3792C42.54 37.4545 42.5837 37.5231 42.6402 37.5801C42.6968 37.6371 42.7649 37.6813 42.8399 37.7097C42.9149 37.7381 42.9952 37.75 43.0752 37.7447H52.1752C52.2525 37.7427 52.3295 37.7565 52.4014 37.785C52.4733 37.8136 52.5387 37.8564 52.5938 37.9109C52.6488 37.9654 52.6923 38.0304 52.7217 38.1022C52.751 38.1739 52.7657 38.2508 52.7647 38.3283V42.2922C52.7586 42.4464 52.695 42.5926 52.5865 42.702C52.478 42.8114 52.3325 42.876 52.1788 42.8831H43.0895C42.9321 42.8881 42.7823 42.9518 42.6693 43.0618C42.5563 43.1717 42.4883 43.3199 42.4786 43.4775V45.0279C42.4857 45.1841 42.5516 45.3319 42.6629 45.4415C42.7742 45.5511 42.9228 45.6144 43.0788 45.6187H55.2442C55.3981 45.6261 55.5431 45.6929 55.649 45.805C55.7549 45.9171 55.8134 46.0659 55.8123 46.2203V50.3919C55.8114 50.5464 55.7505 50.6946 55.6424 50.8049C55.5344 50.9152 55.3877 50.979 55.2335 50.9827H35.7545C35.5969 50.9837 35.4453 50.9221 35.3328 50.8114C35.2204 50.7007 35.1562 50.5498 35.1543 50.3919V50.3919Z" fill="white"/>
<path d="M35.1758 50.3739V30.7478C35.1748 30.6693 35.1897 30.5915 35.2198 30.519C35.2498 30.4465 35.2943 30.381 35.3505 30.3263C35.4066 30.2717 35.4734 30.2291 35.5466 30.2012C35.6197 30.1733 35.6978 30.1607 35.7761 30.1641H54.5798C54.7334 30.1718 54.8788 30.2359 54.9882 30.3442C55.0977 30.4525 55.1634 30.5975 55.1729 30.7514V34.6902C55.1683 34.8461 55.1043 34.9942 54.9939 35.1042C54.8836 35.2141 54.7353 35.2774 54.5798 35.281H43.0932C43.0139 35.2771 42.9346 35.2895 42.8604 35.3176C42.7861 35.3456 42.7183 35.3887 42.6614 35.4441C42.6044 35.4995 42.5594 35.5661 42.5292 35.6397C42.499 35.7133 42.4842 35.7923 42.4858 35.8718V37.1537C42.4795 37.2337 42.4904 37.3142 42.5179 37.3896C42.5453 37.4649 42.5887 37.5335 42.645 37.5906C42.7012 37.6477 42.7691 37.6919 42.844 37.7204C42.9189 37.7488 42.999 37.7607 43.0789 37.7553H52.1646C52.242 37.7529 52.3192 37.7662 52.3913 37.7946C52.4635 37.823 52.5291 37.8658 52.5843 37.9204C52.6394 37.975 52.6829 38.0402 52.7121 38.1122C52.7413 38.1841 52.7556 38.2613 52.7541 38.339V42.2778C52.7488 42.4322 52.6855 42.5789 52.5768 42.6885C52.4681 42.798 52.3222 42.8624 52.1681 42.8686H43.0932C42.9362 42.8737 42.7867 42.9376 42.6743 43.0476C42.5619 43.1576 42.4947 43.3058 42.4858 43.463V45.0099C42.4921 45.1658 42.5572 45.3135 42.6679 45.4232C42.7787 45.5329 42.9268 45.5963 43.0825 45.6007H55.23C55.3804 45.609 55.5218 45.675 55.625 45.785C55.7281 45.895 55.785 46.0406 55.7838 46.1915V50.356C55.7848 50.5099 55.7255 50.658 55.6185 50.7685C55.5116 50.879 55.3657 50.943 55.2122 50.9468H35.7761C35.6991 50.9487 35.6225 50.9354 35.5507 50.9076C35.4789 50.8798 35.4132 50.8382 35.3575 50.785C35.3018 50.7317 35.257 50.6681 35.2259 50.5975C35.1947 50.527 35.1777 50.451 35.1758 50.3739V50.3739Z" fill="#009BA4"/>
<path d="M81.2973 48.5584C80.3037 49.4929 79.1132 50.1916 77.8138 50.603C75.9363 51.1804 73.986 51.4854 72.0223 51.5089C67.1418 51.5089 63.4606 50.4347 60.9787 48.2862C58.4968 46.1378 57.2559 42.97 57.2559 38.7829C57.2559 34.5768 58.4968 31.403 60.9787 29.2617C63.4606 27.1204 67.1418 26.0462 72.0223 26.0391C76.1287 26.0391 79.418 26.8065 81.8904 28.3415C82.9296 28.9479 83.8298 29.7666 84.5327 30.7443C85.2357 31.7221 85.7255 32.8371 85.9706 34.017C86.0956 34.5935 85.9348 34.7689 85.6133 34.7689H77.7031C77.5141 34.7614 77.331 34.701 77.1745 34.5947C77.0179 34.4884 76.8941 34.3404 76.817 34.1674C76.4685 33.4835 75.9552 32.8976 75.3236 32.4629C74.3997 31.8881 73.3443 31.5602 72.2581 31.5104C71.3838 31.5221 70.5216 31.7167 69.7267 32.0817C68.9318 32.4468 68.2217 32.9742 67.642 33.6302C66.5702 34.8799 66.0414 36.6846 66.0414 38.8008C66.0071 40.6648 66.6539 42.477 67.86 43.8962C68.4297 44.5343 69.1282 45.0437 69.9092 45.3906C70.6903 45.7376 71.536 45.9141 72.3903 45.9086C73.6798 45.881 74.9387 45.5102 76.0381 44.8344C76.9577 44.18 77.6876 43.2929 78.1532 42.2634C78.188 42.1998 78.2046 42.1279 78.2011 42.0554C78.1976 41.983 78.1743 41.913 78.1337 41.853C78.093 41.793 78.0367 41.7454 77.9708 41.7155C77.9049 41.6856 77.832 41.6744 77.7602 41.6833H73.7623C73.684 41.6848 73.6062 41.6704 73.5336 41.6411C73.461 41.6117 73.395 41.568 73.3396 41.5125C73.2843 41.457 73.2406 41.3909 73.2114 41.3181C73.1821 41.2453 73.1677 41.1674 73.1692 41.0889V37.7517C73.1682 37.6731 73.183 37.595 73.2127 37.5222C73.2424 37.4494 73.2863 37.3834 73.342 37.3279C73.3976 37.2725 73.4638 37.2288 73.5366 37.1995C73.6094 37.1702 73.6874 37.1558 73.7658 37.1573H85.7741C85.9285 37.1625 86.0753 37.2259 86.1852 37.3347C86.2951 37.4435 86.36 37.5898 86.3671 37.7445V50.3237C86.3683 50.4012 86.3534 50.4782 86.3235 50.5497C86.2935 50.6212 86.2491 50.6857 86.1931 50.7391C86.137 50.7926 86.0706 50.8339 85.9978 50.8604C85.9251 50.8869 85.8477 50.898 85.7705 50.893H83.0837C82.9121 50.8917 82.7457 50.8338 82.6101 50.7283C82.4745 50.6229 82.3773 50.4756 82.3334 50.3094L81.7761 48.698C81.7681 48.6462 81.7455 48.5977 81.7109 48.5582C81.6764 48.5188 81.6314 48.4901 81.5811 48.4754C81.5308 48.4607 81.4774 48.4607 81.4271 48.4754C81.3769 48.4901 81.3318 48.5189 81.2973 48.5584V48.5584Z" fill="#009BA4"/>
<path d="M87.6212 50.3846C90.3294 43.8856 92.7732 37.2791 95.3528 30.7263C95.4081 30.5567 95.5158 30.4091 95.6603 30.3048C95.8048 30.2006 95.9786 30.145 96.1567 30.1463H104.274C104.452 30.1506 104.625 30.2081 104.77 30.3114C104.915 30.4148 105.026 30.5593 105.089 30.7263C107.492 37.2791 109.895 43.8295 112.299 50.3775C112.329 50.4397 112.344 50.5085 112.341 50.5777C112.338 50.6469 112.318 50.7143 112.282 50.7737C112.247 50.8332 112.197 50.8828 112.137 50.918C112.078 50.9532 112.01 50.973 111.941 50.9755H105.171C104.993 50.9772 104.82 50.9192 104.679 50.8109C104.538 50.7025 104.437 50.55 104.392 50.3775C104.303 50.091 104.217 49.801 104.128 49.5145C104.084 49.3366 103.978 49.1803 103.829 49.0739C103.681 48.9675 103.499 48.918 103.317 48.9344H96.514C96.3369 48.9345 96.1646 48.9916 96.0224 49.0973C95.8802 49.2031 95.7757 49.3519 95.7244 49.5217L95.4421 50.3846C95.3971 50.557 95.2954 50.7091 95.1534 50.8164C95.0114 50.9236 94.8374 50.9796 94.6597 50.9755H87.9785C87.9081 50.9785 87.8382 50.9626 87.776 50.9293C87.7139 50.896 87.6618 50.8465 87.6253 50.7861C87.5887 50.7257 87.5691 50.6566 87.5684 50.5859C87.5677 50.5153 87.5859 50.4458 87.6212 50.3846ZM98.2432 43.7961H101.727C102.113 43.7961 102.291 43.6027 102.145 43.2052L100.244 37.0929C100.137 36.7599 99.9546 36.7671 99.8474 37.0929L97.8323 43.2017C97.6966 43.5991 97.8859 43.7889 98.2432 43.7961Z" fill="#009BA4"/>
<path d="M113.274 44.6377H120.941C121.11 44.6544 121.271 44.7168 121.407 44.8184C121.543 44.92 121.649 45.0568 121.713 45.2142C121.9 45.5202 122.169 45.7681 122.488 45.9303C123.221 46.2664 124.023 46.4223 124.828 46.3851C125.585 46.4314 126.343 46.3091 127.047 46.027C127.267 45.9354 127.454 45.7801 127.584 45.581C127.715 45.3818 127.783 45.1481 127.78 44.9098C127.78 44.6891 127.72 44.4724 127.607 44.2831C127.494 44.0939 127.331 43.9391 127.137 43.8356C126.528 43.5107 125.859 43.3133 125.171 43.2555L119.701 42.5071C117.436 42.2064 115.732 41.5356 114.589 40.4948C113.445 39.454 112.871 38.0599 112.867 36.3125C112.867 33.9826 113.734 32.2829 115.468 31.2135C117.202 30.144 119.963 29.6081 123.753 29.6057C127.693 29.6057 130.62 30.1416 132.535 31.2135C133.359 31.6404 134.066 32.2626 134.595 33.0258C135.124 33.789 135.46 34.6701 135.572 35.5927C135.591 35.6719 135.591 35.7546 135.571 35.8337C135.551 35.9127 135.513 35.9858 135.458 36.0467C135.404 36.1075 135.336 36.1544 135.26 36.1832C135.184 36.212 135.102 36.222 135.022 36.2122H127.722C127.55 36.2008 127.384 36.1382 127.247 36.0324C127.109 35.9266 127.006 35.7823 126.951 35.6178C126.757 35.2324 126.442 34.9217 126.054 34.7333C125.233 34.3601 124.335 34.1883 123.435 34.232C122.773 34.1939 122.111 34.3168 121.506 34.5901C121.302 34.6696 121.125 34.8073 120.998 34.9861C120.871 35.1649 120.799 35.377 120.791 35.5963C120.788 35.783 120.838 35.9668 120.935 36.1264C121.031 36.286 121.171 36.4151 121.338 36.4986C121.695 36.7063 122.445 36.8961 123.589 37.0751L130.259 38.1136C132.353 38.4466 133.907 39.1126 134.936 40.1224C135.965 41.1321 136.483 42.4928 136.483 44.2008C136.483 46.7503 135.453 48.6231 133.393 49.819C131.332 51.015 128.081 51.6118 123.639 51.6094C120.116 51.6094 117.41 51.0126 115.521 49.819C114.713 49.3422 114.03 48.677 113.533 47.8798C113.035 47.0825 112.737 46.1767 112.663 45.2392C112.648 45.156 112.654 45.0703 112.679 44.9896C112.705 44.909 112.75 44.8358 112.81 44.7765C112.87 44.7172 112.944 44.6736 113.025 44.6494C113.106 44.6252 113.191 44.6212 113.274 44.6377Z" fill="#009BA4"/>
<path d="M89.0611 17.5456C92.5946 18.4408 96.4211 18.9493 100.137 19.4649C103.853 19.9805 105.028 19.8803 103.838 21.1479C99.9082 25.3087 95.5279 24.0984 88.6145 21.7781C87.632 21.4486 86.8638 21.2839 86.2243 20.3458C85.1239 18.7523 85.8206 16.7149 89.0826 17.5385L89.0611 17.5456ZM55.7839 20.0164C53.283 20.7898 51.593 21.1801 46.9341 22.8308C45.3656 23.3858 43.7721 23.905 42.4038 23.6866C38.3165 22.7592 33.1323 16.4463 36.4907 15.7553C39.3704 15.834 42.7968 16.2351 47.738 16.1133C51.4617 15.9877 55.1675 15.5384 58.8137 14.7706C60.2893 14.4626 60.4036 16.0381 60.2428 16.5609C59.5926 18.8813 57.774 19.4255 55.7625 20.0557L55.7839 20.0164ZM65.9486 21.685C65.2126 17.1697 73.7659 23.1996 73.8409 21.3269C73.9017 18.9565 72.644 18.8454 71.8545 17.9789C70.3217 16.2888 72.9942 15.8305 72.101 14.3516C71.3864 13.1592 71.4543 12.4323 72.051 10.4701C72.5762 8.74058 73.38 7.35483 74.7556 7.31545C75.4701 7.29754 75.8631 7.69859 76.4241 8.12828C76.5991 8.29657 76.542 8.39683 76.5027 8.41473C75.5809 8.84084 76.9886 9.90074 77.7818 9.53193C78.2284 9.75393 78.9679 10.1048 79.5967 10.4701C78.9429 11.4226 79.0072 13.3096 79.3502 14.1439C79.486 14.4805 79.611 14.5593 79.5646 14.9424C79.4395 16.0381 78.85 16.2709 77.989 16.6433C77.9061 16.6558 77.8218 16.6558 77.7389 16.6433C75.7095 16.3174 75.8167 13.5603 76.517 12.1101C76.5399 12.0606 76.548 12.0055 76.5404 11.9515C76.5328 11.8975 76.5098 11.8469 76.4741 11.8057C75.9489 11.3295 74.5126 9.52477 74.2161 10.667C73.5587 13.2308 74.7806 16.4499 77.2494 17.3451C75.9989 18.6342 76.9171 19.4936 77.4781 19.5652C80.0969 19.8481 81.0723 21.3555 81.4832 22.308C81.5511 22.4656 81.7083 22.4799 81.8405 22.3653C82.112 22.1576 83.6483 21.2696 84.5558 21.4307C86.2029 21.7208 87.314 22.505 89.4648 23.1746C97.5573 25.6524 100.451 25.8816 104.392 22.3009C105.196 21.5847 105.921 20.5929 106.239 20.3923C106.85 20.0092 107.826 19.8516 108.704 19.1355C110.109 17.9896 110.652 16.9548 110.659 16.2709C110.659 15.3721 109.841 14.9854 108.747 14.8386C103.703 14.2191 97.9074 12.7224 93.0805 12.0743C89.9793 11.6589 87.3426 11.333 84.6523 13.2416C83.3796 14.1787 82.2128 15.2521 81.1723 16.4428C79.9969 17.7283 78.9393 18.713 78.089 18.8096C77.6817 18.8419 77.6245 18.3549 77.8532 18.072C78.0819 17.7891 78.1605 17.3559 78.4784 17.3093C79.5181 17.1303 80.6793 15.2253 80.2899 14.2299C80.0768 13.7553 79.9451 13.248 79.9004 12.7295C79.9295 12.2575 80.0061 11.7896 80.1291 11.333C80.2649 10.7458 80.5257 10.556 80.9365 10.7565C81.4939 11.0215 82.1049 11.3366 82.3657 10.9105C82.6586 10.5524 82.3192 9.76468 82.3657 7.80601C82.3657 6.9896 82.848 6.80698 82.7229 6.27703C82.4149 5.36225 81.9292 4.51765 81.2938 3.79199L81.2545 3.74902C81.376 3.20117 81.2938 1.72948 80.8794 1.43944C80.4757 1.26399 79.9612 1.82258 79.6039 2.4707C79.4208 2.31787 79.2205 2.18689 79.0072 2.0804C78.9501 1.43228 79.3645 0.150374 78.6071 0.017886C78.0569 -0.150409 76.7956 0.973945 76.5706 1.77245C76.5706 1.77245 76.4812 1.77245 76.4384 1.77245C75.7417 1.77245 73.0263 1.86913 71.5258 2.69628C70.336 3.35156 70.3574 4.7767 68.6675 5.71843C67.8958 6.14454 67.4492 7.72007 66.8489 8.33238C66.3595 8.82652 65.8093 9.53909 65.8664 10.3018C65.97 11.308 65.8343 10.9965 66.2666 11.8952C66.4381 12.2533 66.2844 13.2129 66.4595 13.5173C67.292 14.9747 68.6032 15.8842 68.371 17.5922C68.2852 18.2331 68.2138 18.3728 67.6278 18.5661C67.4021 18.6497 67.1618 18.6861 66.9216 18.6732C66.6814 18.6603 66.4463 18.5982 66.2308 18.491C65.2019 18.1329 64.498 17.4454 64.1658 16.1026C63.6477 14.0079 64.666 12.0384 63.2547 10.0153C62.5866 8.9411 61.4683 8.32164 60.0392 7.96714C59.5172 7.83128 58.9759 7.78527 58.4385 7.83107C48.7526 8.54722 39.6098 7.37274 30.1347 5.13477C28.5627 4.45801 25.9295 4.94141 26.444 7.55178C26.9406 10.0261 27.5587 11.6016 29.4166 13.6426C30.1571 14.4282 30.998 15.1121 31.9175 15.6765C32.9072 16.2172 33.704 18.14 34.6222 19.3288C36.5586 21.8604 38.3558 23.1996 41.0961 24.5925C41.9822 24.9721 43.3613 25.3087 45.4585 24.5925C51.2322 22.5336 53.408 21.9213 56.2984 21.0118L58.5886 20.2777C61.3397 19.2608 63.2333 21.0333 63.1439 22.4799C63.1046 22.6768 63.1439 22.992 63.6763 22.6231C64.3398 22.2865 65.0526 22.058 65.7878 21.9464C65.8157 21.9408 65.8422 21.9292 65.8653 21.9126C65.8884 21.8959 65.9077 21.8745 65.922 21.8498C65.9362 21.825 65.9449 21.7975 65.9477 21.7691C65.9504 21.7407 65.9471 21.712 65.9379 21.685H65.9486Z" fill="#009BA4"/>
<path d="M41.1961 62.3586H10.4092V63.1464H41.1961V62.3586Z" fill="#009BA4"/>
<path d="M136.501 62.355H105.714V63.1427H136.501V62.355Z" fill="#009BA4"/>
<path d="M56.0021 55.2973C56.9219 55.2823 57.8416 55.3374 58.7531 55.4621C59.3164 55.5297 59.8619 55.7034 60.3609 55.9741C60.8395 56.2492 61.2299 56.6554 61.4863 57.145C61.7533 57.6714 61.887 58.2555 61.8758 58.8459C61.8902 59.5733 61.6887 60.2887 61.297 60.9012C60.9163 61.4875 60.3577 61.9357 59.7035 62.1795C60.1925 62.3513 60.6184 62.667 60.9254 63.0855C61.1636 63.4435 61.3017 64.0773 61.3398 64.9868C61.3398 65.0907 61.3398 65.2303 61.3398 65.4058C61.4232 67.1317 61.6542 68.0866 62.033 68.2704V68.4781H56.3843C56.1648 67.9657 56.067 67.4092 56.0985 66.8524C56.0985 66.3833 56.0664 66.0217 56.0378 65.7782C56.034 65.5837 55.9887 65.3923 55.9049 65.2169C55.8211 65.0415 55.7007 64.8861 55.5519 64.7613C55.14 64.5299 54.6683 64.4276 54.1978 64.4676H51.1395V68.4888H45.9839V55.2973H56.0021ZM51.1395 60.9943H54.112C54.6728 61.0346 55.235 60.9401 55.752 60.7186C55.9098 60.6241 56.0381 60.487 56.1221 60.3231C56.2061 60.1591 56.2425 59.9748 56.2271 59.7912C56.244 59.6145 56.2111 59.4366 56.1322 59.2777C56.0532 59.1189 55.9314 58.9854 55.7805 58.8924C55.4804 58.7241 54.8802 58.6382 53.9941 58.6382H51.1359L51.1395 60.9943Z" fill="#009BA4" stroke="#009BA4" stroke-width="1.5" stroke-miterlimit="10"/>
<path d="M70.8933 55.2974V61.7427C70.8933 63.0676 71.0934 63.9878 71.4936 64.5035C71.8937 65.0191 72.5857 65.2757 73.5694 65.2733C74.5555 65.2733 75.245 65.0179 75.638 64.507C76.0311 63.9962 76.2288 63.0747 76.2311 61.7427V55.2974H81.3367V62.2225C81.3367 64.5142 80.7162 66.1852 79.4752 67.2356C78.2343 68.2859 76.2657 68.8183 73.5694 68.8326C70.8969 68.8326 68.9319 68.2967 67.6742 67.2248C66.4166 66.153 65.7902 64.482 65.7949 62.2118V55.2974H70.8933Z" fill="#009BA4" stroke="#009BA4" stroke-width="1.5" stroke-miterlimit="10"/>
<path d="M85.1528 64.4712H91.3267C91.3573 64.6547 91.435 64.8271 91.5521 64.9715C91.6692 65.1159 91.8218 65.2273 91.9948 65.2948C92.5086 65.5106 93.0638 65.6097 93.6204 65.5849C94.1456 65.6126 94.6709 65.5322 95.1639 65.3485C95.3074 65.3033 95.4336 65.2151 95.5255 65.0957C95.6175 64.9764 95.6708 64.8317 95.6781 64.6811C95.6855 64.5305 95.6467 64.3813 95.5669 64.2535C95.4871 64.1257 95.3701 64.0255 95.2317 63.9664C94.8018 63.7627 94.3377 63.6413 93.8634 63.6083L90.0547 63.1392C88.4755 62.9458 87.2894 62.5233 86.4819 61.8609C86.0916 61.5428 85.7802 61.1383 85.5725 60.6791C85.3648 60.2198 85.2664 59.7185 85.285 59.2147C85.249 58.5604 85.4004 57.9093 85.7214 57.3384C86.0423 56.7674 86.5194 56.3003 87.0964 55.992C88.3041 55.3165 90.2274 54.9775 92.8665 54.9751C95.6057 54.9751 97.6434 55.3141 98.9796 55.992C99.5957 56.2692 100.123 56.7114 100.505 57.2699C100.886 57.8284 101.106 58.4815 101.141 59.1574H95.2246C95.1896 58.9499 95.1023 58.7549 94.971 58.5907C94.8397 58.4265 94.6687 58.2986 94.4743 58.2193C93.8977 57.9801 93.2755 57.8713 92.6522 57.9006C92.1925 57.8799 91.7339 57.9606 91.3088 58.1369C91.1729 58.1818 91.0536 58.2666 90.9663 58.3802C90.8791 58.4938 90.8279 58.6311 90.8193 58.7743C90.819 58.8966 90.8547 59.0162 90.9221 59.1182C90.9895 59.2201 91.0855 59.2998 91.198 59.3472C91.7023 59.537 92.2299 59.6574 92.7665 59.7053L97.4112 60.3641C98.8665 60.5718 99.9526 60.9955 100.67 61.6353C101.027 61.9602 101.308 62.36 101.493 62.8062C101.678 63.2525 101.763 63.7342 101.741 64.217C101.773 64.9554 101.587 65.6867 101.205 66.3193C100.824 66.9518 100.265 67.4574 99.5977 67.7727C98.1686 68.527 95.9058 68.9054 92.8094 68.9078C90.3537 68.9078 88.4696 68.527 87.1572 67.7655C85.8448 67.004 85.1767 65.9059 85.1528 64.4712Z" fill="#009BA4" stroke="#009BA4" stroke-width="1.5" stroke-miterlimit="10"/>
</g>
<path d="M9.70844 94.12C9.60177 94.12 9.5051 94.1133 9.41844 94.1C9.33177 94.0867 9.24177 94.0633 9.14844 94.03L9.31844 93.26C9.41844 93.3 9.51177 93.32 9.59844 93.32C9.71844 93.32 9.82844 93.2833 9.92844 93.21C10.0284 93.13 10.1251 92.9633 10.2184 92.71C10.3184 92.4567 10.4184 92.0733 10.5184 91.56C10.6518 90.8733 10.7784 90.1967 10.8984 89.53C11.0184 88.8567 11.1418 88.16 11.2684 87.44H14.5484V94H13.7184V88.14H11.9184C11.8118 88.74 11.7084 89.33 11.6084 89.91C11.5151 90.49 11.4118 91.07 11.2984 91.65C11.1784 92.3167 11.0451 92.83 10.8984 93.19C10.7518 93.5433 10.5818 93.7867 10.3884 93.92C10.2018 94.0533 9.9751 94.12 9.70844 94.12ZM16.3473 94V87.44H20.1273V88.14H17.1773V90.2H19.6673V90.91H17.1773V93.29H20.2273V94H16.3473ZM21.6207 94V87.44H22.4507V90.19H25.5007V87.44H26.3407V94H25.5007V90.91H22.4507V94H21.6207ZM29.5041 94V88.14H27.5241V87.44H32.3241V88.14H30.3441V94H29.5041ZM35.6813 94.12C35.1347 94.12 34.648 93.98 34.2213 93.7C33.8013 93.42 33.4713 93.0233 33.2313 92.51C32.998 91.9967 32.8813 91.39 32.8813 90.69C32.8813 89.99 32.998 89.39 33.2313 88.89C33.4713 88.3833 33.8013 87.9967 34.2213 87.73C34.648 87.4567 35.1347 87.32 35.6813 87.32C36.2347 87.32 36.7213 87.4567 37.1413 87.73C37.5613 87.9967 37.8913 88.3833 38.1313 88.89C38.3713 89.39 38.4913 89.99 38.4913 90.69C38.4913 91.39 38.3713 91.9967 38.1313 92.51C37.8913 93.0233 37.5613 93.42 37.1413 93.7C36.7213 93.98 36.2347 94.12 35.6813 94.12ZM35.6813 93.39C36.0747 93.39 36.4147 93.28 36.7013 93.06C36.9947 92.8333 37.2213 92.52 37.3813 92.12C37.5413 91.7133 37.6213 91.2367 37.6213 90.69C37.6213 89.8767 37.4447 89.2333 37.0913 88.76C36.738 88.2867 36.268 88.05 35.6813 88.05C35.0947 88.05 34.6247 88.2867 34.2713 88.76C33.918 89.2333 33.7413 89.8767 33.7413 90.69C33.7413 91.2367 33.8213 91.7133 33.9813 92.12C34.1413 92.52 34.368 92.8333 34.6613 93.06C34.9547 93.28 35.2947 93.39 35.6813 93.39ZM43.252 94V91.06C43.092 91.0867 42.9153 91.11 42.722 91.13C42.5353 91.15 42.312 91.16 42.052 91.16C41.5586 91.16 41.132 91.0933 40.772 90.96C40.4186 90.82 40.1453 90.5933 39.952 90.28C39.7653 89.9667 39.672 89.5467 39.672 89.02V87.44H40.492V89.02C40.492 89.5667 40.632 89.9467 40.912 90.16C41.1986 90.3667 41.6053 90.47 42.132 90.47C42.3786 90.47 42.592 90.46 42.772 90.44C42.9586 90.42 43.1186 90.3967 43.252 90.37V87.44H44.082V94H43.252ZM45.8785 94V87.44H46.7085V90.19H49.7585V87.44H50.5985V94H49.7585V90.91H46.7085V94H45.8785ZM54.822 94.12C54.2753 94.12 53.7886 93.98 53.362 93.7C52.942 93.42 52.612 93.0233 52.372 92.51C52.1386 91.9967 52.022 91.39 52.022 90.69C52.022 89.99 52.1386 89.39 52.372 88.89C52.612 88.3833 52.942 87.9967 53.362 87.73C53.7886 87.4567 54.2753 87.32 54.822 87.32C55.3753 87.32 55.862 87.4567 56.282 87.73C56.702 87.9967 57.032 88.3833 57.272 88.89C57.512 89.39 57.632 89.99 57.632 90.69C57.632 91.39 57.512 91.9967 57.272 92.51C57.032 93.0233 56.702 93.42 56.282 93.7C55.862 93.98 55.3753 94.12 54.822 94.12ZM54.822 93.39C55.2153 93.39 55.5553 93.28 55.842 93.06C56.1353 92.8333 56.362 92.52 56.522 92.12C56.682 91.7133 56.762 91.2367 56.762 90.69C56.762 89.8767 56.5853 89.2333 56.232 88.76C55.8786 88.2867 55.4086 88.05 54.822 88.05C54.2353 88.05 53.7653 88.2867 53.412 88.76C53.0586 89.2333 52.882 89.8767 52.882 90.69C52.882 91.2367 52.962 91.7133 53.122 92.12C53.282 92.52 53.5086 92.8333 53.802 93.06C54.0953 93.28 54.4353 93.39 54.822 93.39ZM59.0426 94V87.44H63.6926V94H62.8626V88.14H59.8726V94H59.0426ZM65.4879 94V87.44H66.3079V90.83C66.3079 91.1767 66.2946 91.53 66.2679 91.89C66.2479 92.2433 66.2279 92.5867 66.2079 92.92H66.2479L66.9579 91.58L69.3679 87.44H70.2479V94H69.4279V90.57C69.4279 90.2233 69.4379 89.8767 69.4579 89.53C69.4846 89.1833 69.5079 88.8467 69.5279 88.52H69.4879L68.7779 89.86L66.3679 94H65.4879ZM71.7104 94.12C71.6037 94.12 71.5071 94.1133 71.4204 94.1C71.3337 94.0867 71.2437 94.0633 71.1504 94.03L71.3204 93.26C71.4204 93.3 71.5137 93.32 71.6004 93.32C71.7204 93.32 71.8304 93.2833 71.9304 93.21C72.0304 93.13 72.1271 92.9633 72.2204 92.71C72.3204 92.4567 72.4204 92.0733 72.5204 91.56C72.6537 90.8733 72.7804 90.1967 72.9004 89.53C73.0204 88.8567 73.1437 88.16 73.2704 87.44H76.5504V94H75.7204V88.14H73.9204C73.8137 88.74 73.7104 89.33 73.6104 89.91C73.5171 90.49 73.4137 91.07 73.3004 91.65C73.1804 92.3167 73.0471 92.83 72.9004 93.19C72.7537 93.5433 72.5837 93.7867 72.3904 93.92C72.2037 94.0533 71.9771 94.12 71.7104 94.12ZM78.3492 94V87.44H79.1792V90.13H80.3892C80.8692 90.13 81.2892 90.1933 81.6492 90.32C82.0159 90.4467 82.2992 90.6467 82.4992 90.92C82.7059 91.1867 82.8092 91.54 82.8092 91.98C82.8092 92.68 82.5892 93.1933 82.1492 93.52C81.7159 93.84 81.1326 94 80.3992 94H78.3492ZM79.1792 93.32H80.2892C80.8426 93.32 81.2626 93.2167 81.5492 93.01C81.8426 92.8033 81.9892 92.4667 81.9892 92C81.9892 91.5867 81.8459 91.2833 81.5592 91.09C81.2726 90.8967 80.8426 90.8 80.2692 90.8H79.1792V93.32ZM84.15 94V87.44H84.98V90.19H88.03V87.44H88.87V94H88.03V90.91H84.98V94H84.15ZM90.6734 94V87.44H91.5034V90.13H92.5234C93.0034 90.13 93.4234 90.1933 93.7834 90.32C94.1501 90.4467 94.4334 90.6467 94.6334 90.92C94.8401 91.1867 94.9434 91.54 94.9434 91.98C94.9434 92.68 94.7234 93.1933 94.2834 93.52C93.8501 93.84 93.2668 94 92.5334 94H90.6734ZM91.5034 93.32H92.4334C92.9868 93.32 93.4068 93.2167 93.6934 93.01C93.9801 92.8033 94.1234 92.4667 94.1234 92C94.1234 91.5867 93.9801 91.2833 93.6934 91.09C93.4068 90.8967 92.9768 90.8 92.4034 90.8H91.5034V93.32ZM96.0234 94V87.44H96.8534V94H96.0234ZM98.652 94V87.44H102.432V88.14H99.482V90.2H101.972V90.91H99.482V93.29H102.532V94H98.652ZM108.407 94.12C107.861 94.12 107.371 93.9867 106.937 93.72C106.511 93.4467 106.171 93.0567 105.917 92.55C105.671 92.0433 105.547 91.4333 105.547 90.72C105.547 90.0133 105.674 89.4067 105.927 88.9C106.181 88.3933 106.527 88.0033 106.967 87.73C107.407 87.4567 107.904 87.32 108.457 87.32C108.857 87.32 109.211 87.4033 109.517 87.57C109.824 87.73 110.071 87.9167 110.257 88.13L109.807 88.67C109.634 88.4833 109.437 88.3333 109.217 88.22C108.997 88.1067 108.747 88.05 108.467 88.05C108.054 88.05 107.691 88.16 107.377 88.38C107.071 88.5933 106.831 88.8967 106.657 89.29C106.491 89.6833 106.407 90.1533 106.407 90.7C106.407 91.2467 106.491 91.7233 106.657 92.13C106.824 92.53 107.057 92.84 107.357 93.06C107.664 93.28 108.024 93.39 108.437 93.39C108.751 93.39 109.031 93.3233 109.277 93.19C109.524 93.0567 109.751 92.8767 109.957 92.65L110.417 93.17C110.157 93.47 109.864 93.7033 109.537 93.87C109.211 94.0367 108.834 94.12 108.407 94.12ZM112.824 94V88.14H110.844V87.44H115.644V88.14H113.664V94H112.824ZM117.555 90.33L117.245 91.33H119.215L118.905 90.33C118.785 89.9633 118.672 89.6 118.565 89.24C118.459 88.8733 118.352 88.5 118.245 88.12H118.205C118.105 88.5 118.002 88.8733 117.895 89.24C117.789 89.6 117.675 89.9633 117.555 90.33ZM115.555 94L117.775 87.44H118.715L120.935 94H120.045L119.425 92H117.035L116.405 94H115.555ZM121.865 94V87.44H122.695V90.19H125.745V87.44H126.585V94H125.745V90.91H122.695V94H121.865ZM128.388 94V87.44H129.218V90.21H130.348L131.268 88.54C131.455 88.2067 131.622 87.9533 131.768 87.78C131.922 87.6 132.075 87.48 132.228 87.42C132.382 87.3533 132.555 87.32 132.748 87.32C132.888 87.32 133.008 87.34 133.108 87.38L132.968 88.15C132.922 88.1367 132.878 88.13 132.838 88.13C132.798 88.1233 132.762 88.12 132.728 88.12C132.635 88.12 132.548 88.14 132.468 88.18C132.388 88.2133 132.302 88.29 132.208 88.41C132.122 88.53 132.012 88.71 131.878 88.95L131.008 90.51L133.268 94H132.358L130.338 90.89H129.218V94H128.388ZM134.189 94V87.44H135.009V90.83C135.009 91.1767 134.996 91.53 134.969 91.89C134.949 92.2433 134.929 92.5867 134.909 92.92H134.949L135.659 91.58L138.069 87.44H138.949V94H138.129V90.57C138.129 90.2233 138.139 89.8767 138.159 89.53C138.186 89.1833 138.209 88.8467 138.229 88.52H138.189L137.479 89.86L135.069 94H134.189Z" fill="#666666"/>
<defs>
<clipPath id="clip0_1037_20247">
<rect width="128.182" height="70" fill="white" transform="translate(10.4092)"/>
</clipPath>
</defs>
</svg>
